<svg xmlns="http://www.w3.org/2000/svg" xmlns:xlink="http://www.w3.org/1999/xlink" width="1099pt" height="952" viewBox="0 0 1099 714"><g id="graph0" class="graph" transform="scale(1 1) rotate(0) translate(4 710)"><title>webthree</title><polygon fill="#fff" stroke="none" points="-4 4 -4 -710 1095 -710 1095 4 -4 4"/><text x="545.5" y="-6.8" font-family="Times,serif" font-size="14" text-anchor="middle">Ethereum C++ dependencies</text><g id="node1" class="node"><title>buildinfo</title><ellipse cx="467" cy="-184" fill="#00bfff" stroke="#000" rx="40.13" ry="18"/><text x="467" y="-181" font-family="Courier,monospace" font-size="10" text-anchor="middle">buildinfo</text></g><g id="node2" class="node"><title>json_spirit</title><ellipse cx="791" cy="-184" fill="none" stroke="red" rx="47.024" ry="18"/><text x="791" y="-181" font-family="Courier,monospace" font-size="10" text-anchor="middle">json_spirit</text></g><g id="node3" class="node"><title>scrypt</title><ellipse cx="907" cy="-184" fill="none" stroke="red" rx="30.038" ry="18"/><text x="907" y="-181" font-family="Courier,monospace" font-size="10" text-anchor="middle">scrypt</text></g><g id="node4" class="node"><title>secp256k1</title><ellipse cx="1005" cy="-184" fill="none" stroke="red" rx="40.13" ry="18"/><text x="1005" y="-181" font-family="Courier,monospace" font-size="10" text-anchor="middle">secp256k1</text></g><g id="node5" class="node"><title>gmp</title><ellipse cx="1011" cy="-112" fill="none" stroke="#000" rx="27" ry="18"/><text x="1011" y="-109" font-family="Courier,monospace" font-size="10" text-anchor="middle">gmp</text></g><g id="edge1" class="edge"><title>secp256k1-&gt;gmp</title><path fill="none" stroke="#000" d="M1006.48,-165.697C1007.14,-157.983 1007.94,-148.712 1008.68,-140.112"/><polygon fill="#000" stroke="#000" points="1012.17 -140.367 1009.53 -130.104 1005.19 -139.769 1012.17 -140.367"/></g><g id="node6" class="node"><title>testeth</title><polygon fill="#7fff00" stroke="#000" stroke-width="2" points="688.005 -562 629.995 -562 629.995 -526 688.005 -526 688.005 -562"/><text x="659" y="-541" font-family="Courier,monospace" font-size="10" text-anchor="middle">testeth</text></g><g id="node7" class="node"><title>ethashseal</title><ellipse cx="517" cy="-472" fill="#00bfff" stroke="#000" rx="43.328" ry="18"/><text x="517" y="-469" font-family="Courier,monospace" font-size="10" text-anchor="middle">ethashseal</text></g><g id="edge2" class="edge"><title>testeth-&gt;ethashseal</title><path fill="none" stroke="#000" d="M629.922,-528.666C607.716,-517.719 576.986,-502.571 553.189,-490.84"/><polygon fill="#000" stroke="#000" points="554.632 -487.649 544.115 -486.367 551.537 -493.928 554.632 -487.649"/></g><g id="node8" class="node"><title>boost::unit_test_framework</title><ellipse cx="716" cy="-472" fill="none" stroke="#000" rx="98.979" ry="18"/><text x="716" y="-469" font-family="Courier,monospace" font-size="10" text-anchor="middle">boost::unit_test_framework</text></g><g id="edge3" class="edge"><title>testeth-&gt;boost::unit_test_framework</title><path fill="none" stroke="#000" d="M673.09,-525.697C679.923,-517.305 688.257,-507.07 695.756,-497.861"/><polygon fill="#000" stroke="#000" points="698.472 -500.069 702.072 -490.104 693.044 -495.649 698.472 -500.069"/></g><g id="node33" class="node"><title>ethereum</title><ellipse cx="643" cy="-400" fill="#00bfff" stroke="#000" rx="36.433" ry="18"/><text x="643" y="-397" font-family="Courier,monospace" font-size="10" text-anchor="middle">ethereum</text></g><g id="edge44" class="edge"><title>ethashseal-&gt;ethereum</title><path fill="none" stroke="#000" d="M541.894,-457.17C561.598,-446.223 589.27,-430.85 610.684,-418.953"/><polygon fill="#000" stroke="#000" points="612.395 -422.007 619.437 -414.091 608.995 -415.888 612.395 -422.007"/></g><g id="node41" class="node"><title>ethash-cl</title><ellipse cx="523" cy="-400" fill="#00bfff" stroke="#000" rx="40.13" ry="18"/><text x="523" y="-397" font-family="Courier,monospace" font-size="10" text-anchor="middle">ethash-cl</text></g><g id="edge45" class="edge"><title>ethashseal-&gt;ethash-cl</title><path fill="none" stroke="#000" stroke-dasharray="1 5" d="M518.483,-453.697C519.144,-445.983 519.939,-436.712 520.676,-428.112"/><polygon fill="#000" stroke="#000" points="524.167 -428.367 521.534 -418.104 517.193 -427.769 524.167 -428.367"/></g><g id="node43" class="node"><title>Cpuid</title><ellipse cx="725" cy="-400" fill="none" stroke="#000" rx="27" ry="18"/><text x="725" y="-397" font-family="Courier,monospace" font-size="10" text-anchor="middle">Cpuid</text></g><g id="edge46" class="edge"><title>ethashseal-&gt;Cpuid</title><path fill="none" stroke="#000" stroke-dasharray="1 5" d="M551.352,-460.93C593.627,-448.437 662.892,-427.612 688,-418 690.092,-417.199 692.233,-416.336 694.379,-415.438"/><polygon fill="#000" stroke="#000" points="695.922 -418.583 703.68 -411.368 693.116 -412.171 695.922 -418.583"/></g><g id="node9" class="node"><title>testweb3</title><polygon fill="#7fff00" stroke="#000" stroke-width="2" points="716.006 -706 651.994 -706 651.994 -670 716.006 -670 716.006 -706"/><text x="684" y="-685" font-family="Courier,monospace" font-size="10" text-anchor="middle">testweb3</text></g><g id="edge5" class="edge"><title>testweb3-&gt;boost::unit_test_framework</title><path fill="none" stroke="#000" d="M686.565,-669.849C692.1,-632.832 705.207,-545.181 711.905,-500.386"/><polygon fill="#000" stroke="#000" points="715.406 -500.64 713.423 -490.232 708.483 -499.605 715.406 -500.64"/></g><g id="node10" class="node"><title>web3jsonrpc</title><ellipse cx="575" cy="-616" fill="#00bfff" stroke="#000" rx="47.024" ry="18"/><text x="575" y="-613" font-family="Courier,monospace" font-size="10" text-anchor="middle">web3jsonrpc</text></g><g id="edge4" class="edge"><title>testweb3-&gt;web3jsonrpc</title><path fill="none" stroke="#000" d="M657.336,-669.876C642.02,-660.041 622.696,-647.631 606.618,-637.305"/><polygon fill="#000" stroke="#000" points="608.372 -634.272 598.066 -631.813 604.589 -640.162 608.372 -634.272"/></g><g id="node30" class="node"><title>json-rpc-cpp</title><ellipse cx="319" cy="-472" fill="none" stroke="#000" rx="50.223" ry="18"/><text x="319" y="-469" font-family="Courier,monospace" font-size="10" text-anchor="middle">json-rpc-cpp</text></g><g id="edge26" class="edge"><title>web3jsonrpc-&gt;json-rpc-cpp</title><path fill="none" stroke="#000" d="M528.177,-613.134C483.443,-609.161 416.177,-597.23 370,-562 349.409,-546.291 335.754,-519.708 327.8,-499.675"/><polygon fill="#000" stroke="#000" points="331.027 -498.311 324.251 -490.167 324.469 -500.759 331.027 -498.311"/></g><g id="node31" class="node"><title>webthree</title><ellipse cx="575" cy="-544" fill="#00bfff" stroke="#000" rx="36.433" ry="18"/><text x="575" y="-541" font-family="Courier,monospace" font-size="10" text-anchor="middle">webthree</text></g><g id="edge27" class="edge"><title>web3jsonrpc-&gt;webthree</title><path fill="none" stroke="#000" d="M575,-597.697C575,-589.983 575,-580.712 575,-572.112"/><polygon fill="#000" stroke="#000" points="578.5 -572.104 575 -562.104 571.5 -572.104 578.5 -572.104"/></g><g id="node11" class="node"><title>testweb3core</title><polygon fill="#7fff00" stroke="#000" stroke-width="2" points="988.009 -562 899.991 -562 899.991 -526 988.009 -526 988.009 -562"/><text x="944" y="-541" font-family="Courier,monospace" font-size="10" text-anchor="middle">testweb3core</text></g><g id="edge8" class="edge"><title>testweb3core-&gt;boost::unit_test_framework</title><path fill="none" stroke="#000" d="M899.769,-529.42C863.835,-518.388 812.874,-502.742 773.728,-490.723"/><polygon fill="#000" stroke="#000" points="774.633 -487.34 764.047 -487.751 772.579 -494.032 774.633 -487.34"/></g><g id="node12" class="node"><title>boost::regex</title><ellipse cx="896" cy="-328" fill="none" stroke="#000" rx="50.223" ry="18"/><text x="896" y="-325" font-family="Courier,monospace" font-size="10" text-anchor="middle">boost::regex</text></g><g id="edge6" class="edge"><title>testweb3core-&gt;boost::regex</title><path fill="none" stroke="#000" d="M973.04,-525.837C985.318,-516.866 998.308,-504.68 1005,-490 1024.91,-446.324 1030.46,-422.691 1005,-382 997.395,-369.847 967.004,-355.615 940.238,-344.961"/><polygon fill="#000" stroke="#000" points="941.178 -341.571 930.59 -341.208 938.641 -348.095 941.178 -341.571"/></g><g id="node13" class="node"><title>p2p</title><ellipse cx="800" cy="-328" fill="#00bfff" stroke="#000" rx="27" ry="18"/><text x="800" y="-325" font-family="Courier,monospace" font-size="10" text-anchor="middle">p2p</text></g><g id="edge7" class="edge"><title>testweb3core-&gt;p2p</title><path fill="none" stroke="#000" d="M956.599,-525.927C968.535,-507.497 982.988,-477.612 971,-454 955.581,-423.63 872.944,-371.764 828.438,-345.411"/><polygon fill="#000" stroke="#000" points="830.212 -342.393 819.817 -340.343 826.664 -348.428 830.212 -342.393"/></g><g id="node14" class="node"><title>boost::date_time</title><ellipse cx="898" cy="-472" fill="none" stroke="#000" rx="64.508" ry="18"/><text x="898" y="-469" font-family="Courier,monospace" font-size="10" text-anchor="middle">boost::date_time</text></g><g id="edge9" class="edge"><title>testweb3core-&gt;boost::date_time</title><path fill="none" stroke="#000" d="M932.629,-525.697C927.282,-517.559 920.796,-507.689 914.889,-498.701"/><polygon fill="#000" stroke="#000" points="917.657 -496.539 909.24 -490.104 911.807 -500.384 917.657 -496.539"/></g><g id="node16" class="node"><title>devcrypto</title><ellipse cx="907" cy="-256" fill="#00bfff" stroke="#000" rx="40.13" ry="18"/><text x="907" y="-253" font-family="Courier,monospace" font-size="10" text-anchor="middle">devcrypto</text></g><g id="edge39" class="edge"><title>p2p-&gt;devcrypto</title><path fill="none" stroke="#000" d="M818.638,-314.807C834.662,-304.324 858.075,-289.007 876.776,-276.773"/><polygon fill="#000" stroke="#000" points="878.806 -279.627 885.258 -271.224 874.974 -273.769 878.806 -279.627"/></g><g id="node39" class="node"><title>Miniupnpc</title><ellipse cx="808" cy="-256" fill="none" stroke="#000" rx="40.13" ry="18"/><text x="808" y="-253" font-family="Courier,monospace" font-size="10" text-anchor="middle">Miniupnpc</text></g><g id="edge40" class="edge"><title>p2p-&gt;Miniupnpc</title><path fill="none" stroke="#000" d="M801.978,-309.697C802.859,-301.983 803.919,-292.712 804.901,-284.112"/><polygon fill="#000" stroke="#000" points="808.387 -284.437 806.045 -274.104 801.432 -283.642 808.387 -284.437"/></g><g id="node15" class="node"><title>bench</title><polygon fill="#7fff00" stroke="#000" stroke-width="2" points="1019 -346 965 -346 965 -310 1019 -310 1019 -346"/><text x="992" y="-325" font-family="Courier,monospace" font-size="10" text-anchor="middle">bench</text></g><g id="edge10" class="edge"><title>bench-&gt;devcrypto</title><path fill="none" stroke="#000" d="M970.989,-309.697C959.645,-300.354 945.529,-288.729 933.443,-278.777"/><polygon fill="#000" stroke="#000" points="935.404 -275.858 925.46 -272.202 930.954 -281.261 935.404 -275.858"/></g><g id="edge11" class="edge"><title>devcrypto-&gt;json_spirit</title><path fill="none" stroke="#000" d="M884.082,-241.17C866.868,-230.782 843.05,-216.409 823.817,-204.803"/><polygon fill="#000" stroke="#000" points="825.439 -201.694 815.068 -199.524 821.822 -207.687 825.439 -201.694"/></g><g id="edge12" class="edge"><title>devcrypto-&gt;scrypt</title><path fill="none" stroke="#000" d="M907,-237.697C907,-229.983 907,-220.712 907,-212.112"/><polygon fill="#000" stroke="#000" points="910.5 -212.104 907 -202.104 903.5 -212.104 910.5 -212.104"/></g><g id="edge13" class="edge"><title>devcrypto-&gt;secp256k1</title><path fill="none" stroke="#000" d="M927.783,-240.155C941.91,-230.064 960.784,-216.583 976.336,-205.474"/><polygon fill="#000" stroke="#000" points="978.48 -208.244 984.583 -199.584 974.411 -202.548 978.48 -208.244"/></g><g id="node17" class="node"><title>devcore</title><ellipse cx="650" cy="-184" fill="#00bfff" stroke="#000" rx="33.236" ry="18"/><text x="650" y="-181" font-family="Courier,monospace" font-size="10" text-anchor="middle">devcore</text></g><g id="edge14" class="edge"><title>devcrypto-&gt;devcore</title><path fill="none" stroke="#000" d="M876.446,-244.195C870.05,-242.051 863.327,-239.883 857,-238 799.352,-220.848 731.696,-204.163 689.831,-194.233"/><polygon fill="#000" stroke="#000" points="690.558 -190.809 680.021 -191.918 688.95 -197.622 690.558 -190.809"/></g><g id="node18" class="node"><title>Cryptopp</title><ellipse cx="562" cy="-184" fill="none" stroke="#000" rx="36.433" ry="18"/><text x="562" y="-181" font-family="Courier,monospace" font-size="10" text-anchor="middle">Cryptopp</text></g><g id="edge15" class="edge"><title>devcrypto-&gt;Cryptopp</title><path fill="none" stroke="#000" d="M877.122,-243.842C870.558,-241.673 863.597,-239.584 857,-238 748.273,-211.892 716.375,-229.533 608,-202 605.042,-201.249 602.011,-200.374 598.985,-199.426"/><polygon fill="#000" stroke="#000" points="600.026 -196.084 589.432 -196.207 597.791 -202.717 600.026 -196.084"/></g><g id="node23" class="node"><title>boost::filesystem</title><ellipse cx="645" cy="-112" fill="none" stroke="#000" rx="68.206" ry="18"/><text x="645" y="-109" font-family="Courier,monospace" font-size="10" text-anchor="middle">boost::filesystem</text></g><g id="edge19" class="edge"><title>devcore-&gt;boost::filesystem</title><path fill="none" stroke="#000" d="M648.764,-165.697C648.213,-157.983 647.551,-148.712 646.937,-140.112"/><polygon fill="#000" stroke="#000" points="650.425 -139.83 646.222 -130.104 643.443 -140.328 650.425 -139.83"/></g><g id="node24" class="node"><title>boost::random</title><ellipse cx="785" cy="-112" fill="none" stroke="#000" rx="53.919" ry="18"/><text x="785" y="-109" font-family="Courier,monospace" font-size="10" text-anchor="middle">boost::random</text></g><g id="edge20" class="edge"><title>devcore-&gt;boost::random</title><path fill="none" stroke="#000" d="M673.207,-170.967C693.706,-160.338 723.961,-144.65 747.829,-132.274"/><polygon fill="#000" stroke="#000" points="749.692 -135.25 756.959 -127.54 746.47 -129.036 749.692 -135.25"/></g><g id="node25" class="node"><title>boost::system</title><ellipse cx="912" cy="-112" fill="none" stroke="#000" rx="53.919" ry="18"/><text x="912" y="-109" font-family="Courier,monospace" font-size="10" text-anchor="middle">boost::system</text></g><g id="edge21" class="edge"><title>devcore-&gt;boost::system</title><path fill="none" stroke="#000" d="M679.292,-175.174C723.29,-163.419 807.033,-141.045 861.145,-126.587"/><polygon fill="#000" stroke="#000" points="862.13 -129.947 870.888 -123.984 860.324 -123.184 862.13 -129.947"/></g><g id="node26" class="node"><title>boost::thread</title><ellipse cx="419" cy="-112" fill="none" stroke="#000" rx="53.919" ry="18"/><text x="419" y="-109" font-family="Courier,monospace" font-size="10" text-anchor="middle">boost::thread</text></g><g id="edge22" class="edge"><title>devcore-&gt;boost::thread</title><path fill="none" stroke="#000" d="M624.236,-172.322C618.596,-170.123 612.628,-167.9 607,-166 581.707,-157.46 516.413,-139.377 469.889,-126.719"/><polygon fill="#000" stroke="#000" points="470.542 -123.27 459.974 -124.027 468.707 -130.025 470.542 -123.27"/></g><g id="node27" class="node"><title>LevelDB</title><ellipse cx="525" cy="-112" fill="none" stroke="#000" rx="33.236" ry="18"/><text x="525" y="-109" font-family="Courier,monospace" font-size="10" text-anchor="middle">LevelDB</text></g><g id="edge23" class="edge"><title>devcore-&gt;LevelDB</title><path fill="none" stroke="#000" d="M627.653,-170.485C607.779,-159.356 578.512,-142.967 556.308,-130.532"/><polygon fill="#000" stroke="#000" points="558.011 -127.475 547.575 -125.642 554.59 -133.582 558.011 -127.475"/></g><g id="node19" class="node"><title>curl</title><ellipse cx="111" cy="-400" fill="none" stroke="#000" rx="27" ry="18"/><text x="111" y="-397" font-family="Courier,monospace" font-size="10" text-anchor="middle">curl</text></g><g id="node20" class="node"><title>ssh2</title><ellipse cx="183" cy="-328" fill="none" stroke="#000" rx="27" ry="18"/><text x="183" y="-325" font-family="Courier,monospace" font-size="10" text-anchor="middle">ssh2</text></g><g id="edge16" class="edge"><title>curl-&gt;ssh2</title><path fill="none" stroke="#000" stroke-dasharray="1 5" d="M125.57,-384.834C135.75,-374.938 149.524,-361.546 161.031,-350.359"/><polygon fill="#000" stroke="#000" points="163.474 -352.865 168.204 -343.385 158.595 -347.846 163.474 -352.865"/></g><g id="node21" class="node"><title>openssl</title><ellipse cx="33" cy="-328" fill="none" stroke="#000" rx="33.236" ry="18"/><text x="33" y="-325" font-family="Courier,monospace" font-size="10" text-anchor="middle">openssl</text></g><g id="edge17" class="edge"><title>curl-&gt;openssl</title><path fill="none" stroke="#000" stroke-dasharray="1 5" d="M95.5897,-385.17C84.5597,-375.272 69.4972,-361.754 56.9127,-350.46"/><polygon fill="#000" stroke="#000" points="59.236 -347.842 49.455 -343.768 54.56 -353.052 59.236 -347.842"/></g><g id="node22" class="node"><title>zlib</title><ellipse cx="111" cy="-328" fill="none" stroke="#000" rx="27" ry="18"/><text x="111" y="-325" font-family="Courier,monospace" font-size="10" text-anchor="middle">zlib</text></g><g id="edge18" class="edge"><title>curl-&gt;zlib</title><path fill="none" stroke="#000" stroke-dasharray="1 5" d="M111,-381.697C111,-373.983 111,-364.712 111,-356.112"/><polygon fill="#000" stroke="#000" points="114.5 -356.104 111 -346.104 107.5 -356.104 114.5 -356.104"/></g><g id="node28" class="node"><title>snappy</title><ellipse cx="525" cy="-40" fill="none" stroke="#000" rx="30.038" ry="18"/><text x="525" y="-37" font-family="Courier,monospace" font-size="10" text-anchor="middle">snappy</text></g><g id="edge24" class="edge"><title>LevelDB-&gt;snappy</title><path fill="none" stroke="#000" stroke-dasharray="1 5" d="M525,-93.6966C525,-85.9827 525,-76.7125 525,-68.1124"/><polygon fill="#000" stroke="#000" points="528.5 -68.104 525 -58.104 521.5 -68.104 528.5 -68.104"/></g><g id="node29" class="node"><title>eth</title><polygon fill="#7fff00" stroke="#000" stroke-width="2" points="602 -706 548 -706 548 -670 602 -670 602 -706"/><text x="575" y="-685" font-family="Courier,monospace" font-size="10" text-anchor="middle">eth</text></g><g id="edge25" class="edge"><title>eth-&gt;web3jsonrpc</title><path fill="none" stroke="#000" d="M575,-669.697C575,-661.983 575,-652.712 575,-644.112"/><polygon fill="#000" stroke="#000" points="578.5 -644.104 575 -634.104 571.5 -644.104 578.5 -644.104"/></g><g id="edge51" class="edge"><title>json-rpc-cpp-&gt;curl</title><path fill="none" stroke="#000" d="M281.215,-460.018C247.162,-449.883 195.858,-434.019 152,-418 148.888,-416.863 145.664,-415.629 142.455,-414.361"/><polygon fill="#000" stroke="#000" points="143.575 -411.039 132.993 -410.526 140.945 -417.526 143.575 -411.039"/></g><g id="node36" class="node"><title>Jsoncpp</title><ellipse cx="416" cy="-328" fill="none" stroke="#000" rx="33.236" ry="18"/><text x="416" y="-325" font-family="Courier,monospace" font-size="10" text-anchor="middle">Jsoncpp</text></g><g id="edge54" class="edge"><title>json-rpc-cpp-&gt;Jsoncpp</title><path fill="none" stroke="#000" d="M271.546,-465.664C241.291,-459.53 204.27,-446.344 185,-418 176.004,-404.768 175.031,-394.515 185,-382 208.083,-353.021 312.998,-338.586 373.194,-332.573"/><polygon fill="#000" stroke="#000" points="373.549 -336.055 383.167 -331.613 372.878 -329.087 373.549 -336.055"/></g><g id="node47" class="node"><title>argtable2</title><ellipse cx="319" cy="-400" fill="none" stroke="#000" rx="40.13" ry="18"/><text x="319" y="-397" font-family="Courier,monospace" font-size="10" text-anchor="middle">argtable2</text></g><g id="edge52" class="edge"><title>json-rpc-cpp-&gt;argtable2</title><path fill="none" stroke="#000" stroke-dasharray="1 5" d="M319,-453.697C319,-445.983 319,-436.712 319,-428.112"/><polygon fill="#000" stroke="#000" points="322.5 -428.104 319 -418.104 315.5 -428.104 322.5 -428.104"/></g><g id="node48" class="node"><title>microhttpd</title><ellipse cx="421" cy="-400" fill="none" stroke="#000" rx="43.328" ry="18"/><text x="421" y="-397" font-family="Courier,monospace" font-size="10" text-anchor="middle">microhttpd</text></g><g id="edge53" class="edge"><title>json-rpc-cpp-&gt;microhttpd</title><path fill="none" stroke="#000" d="M341.132,-455.811C355.766,-445.769 375.127,-432.482 391.122,-421.505"/><polygon fill="#000" stroke="#000" points="393.345 -424.224 399.61 -415.68 389.384 -418.452 393.345 -424.224"/></g><g id="node49" class="node"><title>libedit</title><ellipse cx="227" cy="-400" fill="none" stroke="#000" rx="33.236" ry="18"/><text x="227" y="-397" font-family="Courier,monospace" font-size="10" text-anchor="middle">libedit</text></g><g id="edge55" class="edge"><title>json-rpc-cpp-&gt;libedit</title><path fill="none" stroke="#000" d="M298.582,-455.465C285.307,-445.364 267.863,-432.091 253.519,-421.177"/><polygon fill="#000" stroke="#000" points="255.564 -418.335 245.486 -415.066 251.325 -423.906 255.564 -418.335"/></g><g id="edge57" class="edge"><title>webthree-&gt;ethashseal</title><path fill="none" stroke="#000" d="M561.839,-527.116C554.528,-518.292 545.279,-507.13 537.083,-497.238"/><polygon fill="#000" stroke="#000" points="539.587 -494.774 530.512 -489.307 534.197 -499.24 539.587 -494.774"/></g><g id="node51" class="node"><title>whisper</title><ellipse cx="803" cy="-400" fill="#00bfff" stroke="#000" rx="33.236" ry="18"/><text x="803" y="-397" font-family="Courier,monospace" font-size="10" text-anchor="middle">whisper</text></g><g id="edge58" class="edge"><title>webthree-&gt;whisper</title><path fill="none" stroke="#000" d="M576.561,-525.895C579.339,-505.707 587.001,-472.544 608,-454 660.362,-407.759 694.427,-439.167 761,-418 763.427,-417.228 765.912,-416.38 768.401,-415.487"/><polygon fill="#000" stroke="#000" points="769.799 -418.7 777.911 -411.885 767.319 -412.154 769.799 -418.7"/></g><g id="node32" class="node"><title>ethcore</title><ellipse cx="560" cy="-256" fill="#00bfff" stroke="#000" rx="33.236" ry="18"/><text x="560" y="-253" font-family="Courier,monospace" font-size="10" text-anchor="middle">ethcore</text></g><g id="edge28" class="edge"><title>ethcore-&gt;buildinfo</title><path fill="none" stroke="#000" d="M541.18,-240.834C527.958,-230.883 510.042,-217.397 495.13,-206.173"/><polygon fill="#000" stroke="#000" points="496.849 -203.087 486.755 -199.869 492.64 -208.679 496.849 -203.087"/></g><g id="edge29" class="edge"><title>ethcore-&gt;json_spirit</title><path fill="none" stroke="#000" d="M585.764,-244.322C591.404,-242.123 597.372,-239.9 603,-238 649.894,-222.166 704.428,-207.159 742.646,-197.183"/><polygon fill="#000" stroke="#000" points="743.682 -200.53 752.484 -194.632 741.925 -193.754 743.682 -200.53"/></g><g id="edge30" class="edge"><title>ethcore-&gt;devcore</title><path fill="none" stroke="#000" d="M578.213,-240.834C591.266,-230.682 609.046,-216.853 623.646,-205.498"/><polygon fill="#000" stroke="#000" points="626.07 -208.047 631.814 -199.144 621.772 -202.521 626.07 -208.047"/></g><g id="edge31" class="edge"><title>ethereum-&gt;boost::regex</title><path fill="none" stroke="#000" d="M671.046,-388.059C676.935,-385.924 683.138,-383.794 689,-382 753.317,-362.31 770.965,-363.171 836,-346 840.004,-344.943 844.151,-343.822 848.309,-342.68"/><polygon fill="#000" stroke="#000" points="849.269 -346.046 857.968 -339.998 847.396 -339.301 849.269 -346.046"/></g><g id="edge34" class="edge"><title>ethereum-&gt;p2p</title><path fill="none" stroke="#000" d="M669.278,-387.284C696.728,-375.045 739.768,-355.855 768.895,-342.868"/><polygon fill="#000" stroke="#000" points="770.489 -345.99 778.197 -338.721 767.638 -339.597 770.489 -345.99"/></g><g id="node34" class="node"><title>evm</title><ellipse cx="645" cy="-328" fill="#00bfff" stroke="#000" rx="27" ry="18"/><text x="645" y="-325" font-family="Courier,monospace" font-size="10" text-anchor="middle">evm</text></g><g id="edge32" class="edge"><title>ethereum-&gt;evm</title><path fill="none" stroke="#000" d="M643.494,-381.697C643.715,-373.983 643.98,-364.712 644.225,-356.112"/><polygon fill="#000" stroke="#000" points="647.724 -356.2 644.511 -346.104 640.727 -356 647.724 -356.2"/></g><g id="node35" class="node"><title>evmjit</title><ellipse cx="721" cy="-328" fill="coral" stroke="#000" rx="30.038" ry="18"/><text x="721" y="-325" font-family="Courier,monospace" font-size="10" text-anchor="middle">evmjit</text></g><g id="edge33" class="edge"><title>ethereum-&gt;evmjit</title><path fill="none" stroke="#000" stroke-dasharray="1 5" d="M659.925,-383.811C670.878,-373.982 685.294,-361.044 697.37,-350.206"/><polygon fill="#000" stroke="#000" points="699.803 -352.726 704.908 -343.442 695.128 -347.516 699.803 -352.726"/></g><g id="edge35" class="edge"><title>ethereum-&gt;Jsoncpp</title><path fill="none" stroke="#000" d="M611.461,-390.904C574.585,-381.212 511.863,-364.017 459,-346 456.452,-345.132 453.834,-344.199 451.208,-343.234"/><polygon fill="#000" stroke="#000" points="452.364 -339.929 441.773 -339.654 449.88 -346.474 452.364 -339.929"/></g><g id="edge36" class="edge"><title>evm-&gt;ethcore</title><path fill="none" stroke="#000" d="M628.611,-313.503C616.352,-303.407 599.359,-289.414 585.353,-277.879"/><polygon fill="#000" stroke="#000" points="587.453 -275.075 577.509 -271.419 583.003 -280.478 587.453 -275.075"/></g><g id="node37" class="node"><title>evmcore</title><ellipse cx="645" cy="-256" fill="#00bfff" stroke="#000" rx="33.236" ry="18"/><text x="645" y="-253" font-family="Courier,monospace" font-size="10" text-anchor="middle">evmcore</text></g><g id="edge37" class="edge"><title>evm-&gt;evmcore</title><path fill="none" stroke="#000" d="M645,-309.697C645,-301.983 645,-292.712 645,-284.112"/><polygon fill="#000" stroke="#000" points="648.5 -284.104 645 -274.104 641.5 -284.104 648.5 -284.104"/></g><g id="node38" class="node"><title>llvm</title><ellipse cx="723" cy="-256" fill="none" stroke="#000" rx="27" ry="18"/><text x="723" y="-253" font-family="Courier,monospace" font-size="10" text-anchor="middle">llvm</text></g><g id="edge38" class="edge"><title>evmjit-&gt;llvm</title><path fill="none" stroke="#000" d="M721.494,-309.697C721.715,-301.983 721.98,-292.712 722.225,-284.112"/><polygon fill="#000" stroke="#000" points="725.724 -284.2 722.511 -274.104 718.727 -284 725.724 -284.2"/></g><g id="node40" class="node"><title>ethash</title><ellipse cx="416" cy="-256" fill="#00bfff" stroke="#000" rx="30.038" ry="18"/><text x="416" y="-253" font-family="Courier,monospace" font-size="10" text-anchor="middle">ethash</text></g><g id="edge41" class="edge"><title>ethash-&gt;Cryptopp</title><path fill="none" stroke="#000" d="M438.812,-244.062C462.559,-232.677 500.038,-214.708 527.425,-201.577"/><polygon fill="#000" stroke="#000" points="529.148 -204.632 536.652 -197.153 526.122 -198.32 529.148 -204.632"/></g><g id="edge42" class="edge"><title>ethash-cl-&gt;ethash</title><path fill="none" stroke="#000" d="M491.872,-388.427C448.721,-373.701 375.781,-348.524 374,-346 359.088,-324.869 376.496,-297.609 393.216,-278.857"/><polygon fill="#000" stroke="#000" points="395.943 -281.067 400.244 -271.384 390.843 -276.271 395.943 -281.067"/></g><g id="node42" class="node"><title>OpenCL</title><ellipse cx="498" cy="-328" fill="none" stroke="#000" rx="30.038" ry="18"/><text x="498" y="-325" font-family="Courier,monospace" font-size="10" text-anchor="middle">OpenCL</text></g><g id="edge43" class="edge"><title>ethash-cl-&gt;OpenCL</title><path fill="none" stroke="#000" d="M516.948,-382.055C514.092,-374.059 510.618,-364.331 507.428,-355.4"/><polygon fill="#000" stroke="#000" points="510.656 -354.029 503.996 -345.789 504.063 -356.384 510.656 -354.029"/></g><g id="node44" class="node"><title>ethkey</title><polygon fill="#7fff00" stroke="#000" stroke-width="2" points="600 -346 546 -346 546 -310 600 -310 600 -346"/><text x="573" y="-325" font-family="Courier,monospace" font-size="10" text-anchor="middle">ethkey</text></g><g id="edge47" class="edge"><title>ethkey-&gt;ethcore</title><path fill="none" stroke="#000" d="M569.787,-309.697C568.354,-301.983 566.632,-292.712 565.035,-284.112"/><polygon fill="#000" stroke="#000" points="568.444 -283.297 563.177 -274.104 561.561 -284.575 568.444 -283.297"/></g><g id="node45" class="node"><title>ethminer</title><polygon fill="#7fff00" stroke="#000" stroke-width="2" points="443.006 -562 378.994 -562 378.994 -526 443.006 -526 443.006 -562"/><text x="411" y="-541" font-family="Courier,monospace" font-size="10" text-anchor="middle">ethminer</text></g><g id="edge48" class="edge"><title>ethminer-&gt;ethashseal</title><path fill="none" stroke="#000" d="M436.931,-525.876C451.789,-516.064 470.527,-503.69 486.14,-493.379"/><polygon fill="#000" stroke="#000" points="488.503 -496.013 494.919 -487.582 484.646 -490.172 488.503 -496.013"/></g><g id="edge49" class="edge"><title>ethminer-&gt;json-rpc-cpp</title><path fill="none" stroke="#000" d="M388.258,-525.697C376.037,-516.397 360.842,-504.836 347.802,-494.914"/><polygon fill="#000" stroke="#000" points="349.674 -491.941 339.596 -488.671 345.435 -497.512 349.674 -491.941"/></g><g id="node46" class="node"><title>ethvm</title><polygon fill="#7fff00" stroke="#000" stroke-width="2" points="520 -562 466 -562 466 -526 520 -526 520 -562"/><text x="493" y="-541" font-family="Courier,monospace" font-size="10" text-anchor="middle">ethvm</text></g><g id="edge50" class="edge"><title>ethvm-&gt;ethashseal</title><path fill="none" stroke="#000" d="M498.933,-525.697C501.606,-517.898 504.826,-508.509 507.801,-499.829"/><polygon fill="#000" stroke="#000" points="511.203 -500.699 511.136 -490.104 504.582 -498.429 511.203 -500.699"/></g><g id="node50" class="node"><title>rlp</title><polygon fill="#7fff00" stroke="#000" stroke-width="2" points="1091 -346 1037 -346 1037 -310 1091 -310 1091 -346"/><text x="1064" y="-325" font-family="Courier,monospace" font-size="10" text-anchor="middle">rlp</text></g><g id="edge56" class="edge"><title>rlp-&gt;devcrypto</title><path fill="none" stroke="#000" d="M1036.91,-314.108C1033.91,-312.709 1030.89,-311.317 1028,-310 1000.11,-297.311 968.38,-283.432 944.409,-273.061"/><polygon fill="#000" stroke="#000" points="945.542 -269.738 934.974 -268.986 942.767 -276.164 945.542 -269.738"/></g><g id="edge59" class="edge"><title>whisper-&gt;boost::regex</title><path fill="none" stroke="#000" d="M821.82,-384.834C834.775,-375.083 852.238,-361.939 866.966,-350.854"/><polygon fill="#000" stroke="#000" points="869.382 -353.416 875.266 -344.606 865.172 -347.823 869.382 -353.416"/></g><g id="edge60" class="edge"><title>whisper-&gt;p2p</title><path fill="none" stroke="#000" d="M802.258,-381.697C801.928,-373.983 801.531,-364.712 801.162,-356.112"/><polygon fill="#000" stroke="#000" points="804.658 -355.945 800.733 -346.104 797.665 -356.245 804.658 -355.945"/></g></g></svg>