<svg xmlns="http://www.w3.org/2000/svg" xmlns:xlink="http://www.w3.org/1999/xlink" width="1060pt" height="914pt" viewBox="0 0 1060 914"><g id="graph0" class="graph" transform="scale(1 1) rotate(0) translate(4 910)"><title>webthree</title><polygon fill="#fff" stroke="none" points="-4 4 -4 -910 1056 -910 1056 4 -4 4"/><text x="526" y="-6.8" font-family="Times,serif" font-size="14" text-anchor="middle">webthree dependencies</text><g id="clust1" class="cluster"><title>cluster_cpp_ethereum</title><polygon fill="#f0f8ff" stroke="#000" points="62 -30 62 -824 404 -824 404 -30 62 -30"/><text x="153.898" y="-808.8" font-family="Times,serif" font-size="14" text-anchor="start">cpp_ethereum dependencies</text></g><g id="clust2" class="cluster"><title>cluster_solidity</title><polygon fill="#f5f5f5" stroke="#000" points="742 -534 742 -824 1044 -824 1044 -534 742 -534"/><text x="832.543" y="-808.8" font-family="Times,serif" font-size="14" text-anchor="start">solidity dependencies</text></g><g id="clust4" class="cluster"><title>cluster_alethzero</title><polygon fill="#d3d3d3" stroke="#000" points="412 -750 412 -898 580 -898 580 -750 412 -750"/><text x="430.898" y="-882.8" font-family="Times,serif" font-size="14" text-anchor="start">alethzero dependencies</text></g><g id="clust8" class="cluster"><title>cluster_mix</title><polygon fill="#f0fff0" stroke="#000" points="588 -750 588 -824 704 -824 704 -750 588 -750"/><text x="595.657" y="-808.8" font-family="Times,serif" font-size="14" text-anchor="start">mix dependencies</text></g><g id="node1" class="node"><title>buildinfo</title><ellipse cx="199" cy="-272" fill="none" stroke="#000" rx="40.13" ry="18"/><text x="199" y="-269" font-family="Courier,monospace" font-size="10" text-anchor="middle">buildinfo</text></g><g id="node2" class="node"><title>base</title><ellipse cx="369" cy="-128" fill="none" stroke="#000" rx="27" ry="18"/><text x="369" y="-125" font-family="Courier,monospace" font-size="10" text-anchor="middle">base</text></g><g id="node3" class="node"><title>json_spirit</title><ellipse cx="346" cy="-56" fill="none" stroke="#000" rx="47.024" ry="18"/><text x="346" y="-53" font-family="Courier,monospace" font-size="10" text-anchor="middle">json_spirit</text></g><g id="edge6" class="edge"><title>base-&gt;json_spirit</title><path fill="none" stroke="#000" d="M363.432,-110.055C360.844,-102.176 357.703,-92.6165 354.804,-83.794"/><polygon fill="#000" stroke="#000" points="358.123 -82.683 351.676 -74.275 351.473 -84.868 358.123 -82.683"/></g><g id="node42" class="node"><title>boost</title><ellipse cx="615" cy="-56" fill="none" stroke="#000" rx="27" ry="18"/><text x="615" y="-53" font-family="Courier,monospace" font-size="10" text-anchor="middle">boost</text></g><g id="edge7" class="edge"><title>base-&gt;boost</title><path fill="none" stroke="#000" d="M389.596,-116.256C394.549,-113.959 399.888,-111.712 405,-110 479.47,-85.0589 503.4,-98.5503 578,-74 580.266,-73.2542 582.578,-72.4095 584.884,-71.5051"/><polygon fill="#000" stroke="#000" points="586.362 -74.68 594.199 -67.55 583.626 -68.237 586.362 -74.68"/></g><g id="node43" class="node"><title>Jsoncpp</title><ellipse cx="693" cy="-56" fill="none" stroke="#000" rx="33.236" ry="18"/><text x="693" y="-53" font-family="Courier,monospace" font-size="10" text-anchor="middle">Jsoncpp</text></g><g id="edge8" class="edge"><title>base-&gt;Jsoncpp</title><path fill="none" stroke="#000" d="M389.525,-116.033C394.481,-113.745 399.839,-111.558 405,-110 510.781,-78.0595 544.358,-102.936 651,-74 653.458,-73.3331 655.966,-72.563 658.472,-71.7264"/><polygon fill="#000" stroke="#000" points="659.82 -74.96 668.018 -68.248 657.424 -68.383 659.82 -74.96"/></g><g id="node44" class="node"><title>LevelDB</title><ellipse cx="445" cy="-56" fill="none" stroke="#000" rx="33.236" ry="18"/><text x="445" y="-53" font-family="Courier,monospace" font-size="10" text-anchor="middle">LevelDB</text></g><g id="edge9" class="edge"><title>base-&gt;LevelDB</title><path fill="none" stroke="#000" d="M384.38,-112.834C394.983,-103.069 409.28,-89.9004 421.326,-78.8048"/><polygon fill="#000" stroke="#000" points="423.872 -81.219 428.856 -71.869 419.13 -76.07 423.872 -81.219"/></g><g id="node45" class="node"><title>pthreads</title><ellipse cx="533" cy="-56" fill="none" stroke="#000" rx="36.433" ry="18"/><text x="533" y="-53" font-family="Courier,monospace" font-size="10" text-anchor="middle">pthreads</text></g><g id="edge10" class="edge"><title>base-&gt;pthreads</title><path fill="none" stroke="#000" d="M390.242,-116.76C395.073,-114.489 400.197,-112.127 405,-110 435.421,-96.5286 470.339,-82.1411 496.012,-71.7607"/><polygon fill="#000" stroke="#000" points="497.403 -74.974 505.37 -67.989 494.786 -68.481 497.403 -74.974"/></g><g id="node4" class="node"><title>scrypt</title><ellipse cx="366" cy="-200" fill="none" stroke="#000" rx="30.038" ry="18"/><text x="366" y="-197" font-family="Courier,monospace" font-size="10" text-anchor="middle">scrypt</text></g><g id="node5" class="node"><title>secp256k1</title><ellipse cx="278" cy="-200" fill="none" stroke="#000" rx="40.13" ry="18"/><text x="278" y="-197" font-family="Courier,monospace" font-size="10" text-anchor="middle">secp256k1</text></g><g id="node46" class="node"><title>gmp</title><ellipse cx="441" cy="-128" fill="none" stroke="#000" rx="27" ry="18"/><text x="441" y="-125" font-family="Courier,monospace" font-size="10" text-anchor="middle">gmp</text></g><g id="edge11" class="edge"><title>secp256k1-&gt;gmp</title><path fill="none" stroke="#000" d="M307.749,-187.738C334.307,-177.479 374.126,-161.593 408,-146 409.153,-145.469 410.323,-144.92 411.502,-144.358"/><polygon fill="#000" stroke="#000" points="413.125 -147.46 420.543 -139.894 410.026 -141.183 413.125 -147.46"/></g><g id="node6" class="node"><title>testeth</title><polygon fill="none" stroke="#000" stroke-width="2" points="139.005 -722 80.995 -722 80.995 -686 139.005 -686 139.005 -722"/><text x="110" y="-701" font-family="Courier,monospace" font-size="10" text-anchor="middle">testeth</text></g><g id="node22" class="node"><title>testutils</title><ellipse cx="110" cy="-632" fill="none" stroke="#000" rx="40.13" ry="18"/><text x="110" y="-629" font-family="Courier,monospace" font-size="10" text-anchor="middle">testutils</text></g><g id="edge12" class="edge"><title>testeth-&gt;testutils</title><path fill="none" stroke="#000" d="M110,-685.697C110,-677.983 110,-668.712 110,-660.112"/><polygon fill="#000" stroke="#000" points="113.5 -660.104 110 -650.104 106.5 -660.104 113.5 -660.104"/></g><g id="node7" class="node"><title>evmcore</title><ellipse cx="105" cy="-272" fill="none" stroke="#000" rx="33.236" ry="18"/><text x="105" y="-269" font-family="Courier,monospace" font-size="10" text-anchor="middle">evmcore</text></g><g id="node23" class="node"><title>devcore</title><ellipse cx="186" cy="-200" fill="none" stroke="#000" rx="33.236" ry="18"/><text x="186" y="-197" font-family="Courier,monospace" font-size="10" text-anchor="middle">devcore</text></g><g id="edge13" class="edge"><title>evmcore-&gt;devcore</title><path fill="none" stroke="#000" d="M122.178,-256.155C133.53,-246.344 148.591,-233.329 161.231,-222.405"/><polygon fill="#000" stroke="#000" points="163.847 -224.771 169.124 -215.584 159.27 -219.474 163.847 -224.771"/></g><g id="node8" class="node"><title>ethereum</title><ellipse cx="233" cy="-488" fill="none" stroke="#000" rx="36.433" ry="18"/><text x="233" y="-485" font-family="Courier,monospace" font-size="10" text-anchor="middle">ethereum</text></g><g id="node13" class="node"><title>p2p</title><ellipse cx="352" cy="-416" fill="none" stroke="#000" rx="27" ry="18"/><text x="352" y="-413" font-family="Courier,monospace" font-size="10" text-anchor="middle">p2p</text></g><g id="edge19" class="edge"><title>ethereum-&gt;p2p</title><path fill="none" stroke="#000" d="M255.663,-473.669C274.931,-462.335 302.694,-446.003 323.472,-433.781"/><polygon fill="#000" stroke="#000" points="325.342 -436.742 332.187 -428.655 321.793 -430.708 325.342 -436.742"/></g><g id="node21" class="node"><title>evm</title><ellipse cx="187" cy="-416" fill="none" stroke="#000" rx="27" ry="18"/><text x="187" y="-413" font-family="Courier,monospace" font-size="10" text-anchor="middle">evm</text></g><g id="edge20" class="edge"><title>ethereum-&gt;evm</title><path fill="none" stroke="#000" d="M222.331,-470.765C216.56,-461.983 209.319,-450.963 202.897,-441.19"/><polygon fill="#000" stroke="#000" points="205.711 -439.101 197.295 -432.666 199.862 -442.945 205.711 -439.101"/></g><g id="node9" class="node"><title>ethashseal</title><ellipse cx="194" cy="-560" fill="none" stroke="#000" rx="43.328" ry="18"/><text x="194" y="-557" font-family="Courier,monospace" font-size="10" text-anchor="middle">ethashseal</text></g><g id="edge21" class="edge"><title>ethashseal-&gt;ethereum</title><path fill="none" stroke="#000" d="M203.242,-542.411C207.905,-534.042 213.662,-523.71 218.865,-514.37"/><polygon fill="#000" stroke="#000" points="222.014 -515.909 223.824 -505.47 215.899 -512.502 222.014 -515.909"/></g><g id="node20" class="node"><title>ethash-cl</title><ellipse cx="138" cy="-488" fill="none" stroke="#000" rx="40.13" ry="18"/><text x="138" y="-485" font-family="Courier,monospace" font-size="10" text-anchor="middle">ethash-cl</text></g><g id="edge22" class="edge"><title>ethashseal-&gt;ethash-cl</title><path fill="none" stroke="#000" stroke-dasharray="1 5" d="M181.012,-542.765C173.944,-533.93 165.064,-522.83 157.211,-513.014"/><polygon fill="#000" stroke="#000" points="159.898 -510.77 150.918 -505.147 154.432 -515.142 159.898 -510.77"/></g><g id="node48" class="node"><title>Cpuid</title><ellipse cx="27" cy="-488" fill="none" stroke="#000" rx="27" ry="18"/><text x="27" y="-485" font-family="Courier,monospace" font-size="10" text-anchor="middle">Cpuid</text></g><g id="edge23" class="edge"><title>ethashseal-&gt;Cpuid</title><path fill="none" stroke="#000" stroke-dasharray="1 5" d="M161.907,-547.831C134.033,-537.816 92.7898,-522.234 58,-506 57.3117,-505.679 56.6174,-505.349 55.9195,-505.012"/><polygon fill="#000" stroke="#000" points="57.312 -501.793 46.814 -500.362 54.128 -508.027 57.312 -501.793"/></g><g id="node10" class="node"><title>web3jsonrpc</title><ellipse cx="349" cy="-704" fill="none" stroke="#000" rx="47.024" ry="18"/><text x="349" y="-701" font-family="Courier,monospace" font-size="10" text-anchor="middle">web3jsonrpc</text></g><g id="node11" class="node"><title>webthree</title><ellipse cx="277" cy="-632" fill="none" stroke="#000" rx="36.433" ry="18"/><text x="277" y="-629" font-family="Courier,monospace" font-size="10" text-anchor="middle">webthree</text></g><g id="edge24" class="edge"><title>web3jsonrpc-&gt;webthree</title><path fill="none" stroke="#000" d="M332.301,-686.765C322.807,-677.535 310.771,-665.833 300.353,-655.705"/><polygon fill="#000" stroke="#000" points="302.723 -653.127 293.113 -648.666 297.844 -658.146 302.723 -653.127"/></g><g id="node49" class="node"><title>JsonRpc*</title><ellipse cx="449" cy="-560" fill="none" stroke="#000" rx="36.433" ry="18"/><text x="449" y="-557" font-family="Courier,monospace" font-size="10" text-anchor="middle">JsonRpc*</text></g><g id="edge25" class="edge"><title>web3jsonrpc-&gt;JsonRpc*</title><path fill="none" stroke="#000" d="M368.565,-687.521C380.164,-677.655 394.584,-664.107 405,-650 419.32,-630.606 431.126,-605.838 438.891,-587.357"/><polygon fill="#000" stroke="#000" points="442.143 -588.651 442.677 -578.07 435.661 -586.009 442.143 -588.651"/></g><g id="edge26" class="edge"><title>webthree-&gt;ethashseal</title><path fill="none" stroke="#000" d="M259.398,-616.155C248.078,-606.608 233.159,-594.025 220.429,-583.29"/><polygon fill="#000" stroke="#000" points="222.341 -580.323 212.44 -576.552 217.828 -585.674 222.341 -580.323"/></g><g id="node28" class="node"><title>whisper</title><ellipse cx="289" cy="-560" fill="none" stroke="#000" rx="33.236" ry="18"/><text x="289" y="-557" font-family="Courier,monospace" font-size="10" text-anchor="middle">whisper</text></g><g id="edge27" class="edge"><title>webthree-&gt;whisper</title><path fill="none" stroke="#000" d="M279.905,-614.055C281.226,-606.346 282.824,-597.027 284.309,-588.364"/><polygon fill="#000" stroke="#000" points="287.798 -588.723 286.039 -578.275 280.899 -587.54 287.798 -588.723"/></g><g id="node12" class="node"><title>ethcore</title><ellipse cx="199" cy="-344" fill="none" stroke="#000" rx="33.236" ry="18"/><text x="199" y="-341" font-family="Courier,monospace" font-size="10" text-anchor="middle">ethcore</text></g><g id="edge28" class="edge"><title>ethcore-&gt;buildinfo</title><path fill="none" stroke="#000" d="M199,-325.697C199,-317.983 199,-308.712 199,-300.112"/><polygon fill="#000" stroke="#000" points="202.5 -300.104 199 -290.104 195.5 -300.104 202.5 -300.104"/></g><g id="node14" class="node"><title>devcrypto</title><ellipse cx="324" cy="-272" fill="none" stroke="#000" rx="40.13" ry="18"/><text x="324" y="-269" font-family="Courier,monospace" font-size="10" text-anchor="middle">devcrypto</text></g><g id="edge29" class="edge"><title>ethcore-&gt;devcrypto</title><path fill="none" stroke="#000" d="M221.347,-330.485C240.641,-319.681 268.788,-303.919 290.731,-291.631"/><polygon fill="#000" stroke="#000" points="292.696 -294.542 299.711 -286.602 289.276 -288.434 292.696 -294.542"/></g><g id="edge30" class="edge"><title>p2p-&gt;devcrypto</title><path fill="none" stroke="#000" d="M364.846,-399.93C378.47,-382.011 396.552,-351.341 385,-326 378.866,-312.544 367.44,-301.183 356.121,-292.473"/><polygon fill="#000" stroke="#000" points="358.136 -289.611 347.975 -286.608 354.045 -295.291 358.136 -289.611"/></g><g id="node50" class="node"><title>Miniupnpc</title><ellipse cx="454" cy="-344" fill="none" stroke="#000" rx="40.13" ry="18"/><text x="454" y="-341" font-family="Courier,monospace" font-size="10" text-anchor="middle">Miniupnpc</text></g><g id="edge31" class="edge"><title>p2p-&gt;Miniupnpc</title><path fill="none" stroke="#000" stroke-dasharray="1 5" d="M370.236,-402.485C385.167,-392.238 406.597,-377.531 424.043,-365.559"/><polygon fill="#000" stroke="#000" points="426.483 -368.129 432.747 -359.585 422.522 -362.358 426.483 -368.129"/></g><g id="edge32" class="edge"><title>devcrypto-&gt;scrypt</title><path fill="none" stroke="#000" d="M333.953,-254.411C339.027,-245.955 345.303,-235.494 350.953,-226.078"/><polygon fill="#000" stroke="#000" points="353.974 -227.846 356.118 -217.47 347.972 -224.244 353.974 -227.846"/></g><g id="edge33" class="edge"><title>devcrypto-&gt;secp256k1</title><path fill="none" stroke="#000" d="M313.099,-254.411C307.542,-245.955 300.668,-235.494 294.48,-226.078"/><polygon fill="#000" stroke="#000" points="297.24 -223.905 288.823 -217.47 291.39 -227.749 297.24 -223.905"/></g><g id="edge34" class="edge"><title>devcrypto-&gt;devcore</title><path fill="none" stroke="#000" d="M298.367,-257.998C275.934,-246.619 243.217,-230.023 218.865,-217.671"/><polygon fill="#000" stroke="#000" points="220.155 -214.4 209.653 -212.998 216.988 -220.643 220.155 -214.4"/></g><g id="node51" class="node"><title>Cryptopp</title><ellipse cx="451" cy="-200" fill="none" stroke="#000" rx="36.433" ry="18"/><text x="451" y="-197" font-family="Courier,monospace" font-size="10" text-anchor="middle">Cryptopp</text></g><g id="edge35" class="edge"><title>devcrypto-&gt;Cryptopp</title><path fill="none" stroke="#000" d="M348.487,-257.503C368.417,-246.518 396.718,-230.919 418.536,-218.893"/><polygon fill="#000" stroke="#000" points="420.379 -221.874 427.447 -213.982 417 -215.744 420.379 -221.874"/></g><g id="node15" class="node"><title>ethkey</title><polygon fill="none" stroke="#000" stroke-width="2" points="286 -434 232 -434 232 -398 286 -398 286 -434"/><text x="259" y="-413" font-family="Courier,monospace" font-size="10" text-anchor="middle">ethkey</text></g><g id="edge36" class="edge"><title>ethkey-&gt;ethcore</title><path fill="none" stroke="#000" d="M244.169,-397.697C236.577,-388.84 227.228,-377.932 219.008,-368.343"/><polygon fill="#000" stroke="#000" points="221.598 -365.986 212.432 -360.671 216.283 -370.542 221.598 -365.986"/></g><g id="node16" class="node"><title>ethminer</title><polygon fill="none" stroke="#000" stroke-width="2" points="396.006 -650 331.994 -650 331.994 -614 396.006 -614 396.006 -650"/><text x="364" y="-629" font-family="Courier,monospace" font-size="10" text-anchor="middle">ethminer</text></g><g id="edge37" class="edge"><title>ethminer-&gt;ethashseal</title><path fill="none" stroke="#000" d="M331.624,-617.669C303.546,-606.107 262.838,-589.345 232.978,-577.05"/><polygon fill="#000" stroke="#000" points="234.274 -573.798 223.695 -573.227 231.609 -580.271 234.274 -573.798"/></g><g id="edge38" class="edge"><title>ethminer-&gt;JsonRpc*</title><path fill="none" stroke="#000" d="M385.011,-613.697C396.515,-604.223 410.87,-592.402 423.066,-582.357"/><polygon fill="#000" stroke="#000" points="425.609 -584.797 431.103 -575.738 421.159 -579.394 425.609 -584.797"/></g><g id="node17" class="node"><title>ethvm</title><polygon fill="none" stroke="#000" stroke-width="2" points="222 -650 168 -650 168 -614 222 -614 222 -650"/><text x="195" y="-629" font-family="Courier,monospace" font-size="10" text-anchor="middle">ethvm</text></g><g id="edge39" class="edge"><title>ethvm-&gt;ethashseal</title><path fill="none" stroke="#000" d="M194.753,-613.697C194.643,-605.983 194.51,-596.712 194.387,-588.112"/><polygon fill="#000" stroke="#000" points="197.887 -588.053 194.244 -578.104 190.888 -588.153 197.887 -588.053"/></g><g id="node18" class="node"><title>evmjit</title><polygon fill="none" stroke="#000" stroke-width="2" points="148 -362 94 -362 94 -326 148 -326 148 -362"/><text x="121" y="-341" font-family="Courier,monospace" font-size="10" text-anchor="middle">evmjit</text></g><g id="node19" class="node"><title>ethash</title><ellipse cx="112" cy="-416" fill="none" stroke="#000" rx="30.038" ry="18"/><text x="112" y="-413" font-family="Courier,monospace" font-size="10" text-anchor="middle">ethash</text></g><g id="edge40" class="edge"><title>ethash-cl-&gt;ethash</title><path fill="none" stroke="#000" d="M131.706,-470.055C128.736,-462.059 125.123,-452.331 121.806,-443.4"/><polygon fill="#000" stroke="#000" points="124.999 -441.945 118.236 -433.789 118.437 -444.382 124.999 -441.945"/></g><g id="node52" class="node"><title>OpenCL</title><ellipse cx="442" cy="-416" fill="none" stroke="#000" rx="30.038" ry="18"/><text x="442" y="-413" font-family="Courier,monospace" font-size="10" text-anchor="middle">OpenCL</text></g><g id="edge41" class="edge"><title>ethash-cl-&gt;OpenCL</title><path fill="none" stroke="#000" d="M167.811,-475.741C174.089,-473.63 180.715,-471.59 187,-470 283.479,-445.6 313.305,-464.601 408,-434 409.201,-433.612 410.412,-433.187 411.626,-432.733"/><polygon fill="#000" stroke="#000" points="413.006 -435.949 420.831 -428.806 410.26 -429.51 413.006 -435.949"/></g><g id="edge42" class="edge"><title>evm-&gt;evmcore</title><path fill="none" stroke="#000" d="M165.497,-404.536C136.263,-390.208 87.3179,-365.816 85,-362 73.2391,-342.635 80.8691,-317.119 89.8902,-298.375"/><polygon fill="#000" stroke="#000" points="93.123 -299.744 94.639 -289.258 86.915 -296.51 93.123 -299.744"/></g><g id="edge43" class="edge"><title>evm-&gt;ethcore</title><path fill="none" stroke="#000" d="M189.905,-398.055C191.226,-390.346 192.824,-381.027 194.309,-372.364"/><polygon fill="#000" stroke="#000" points="197.798 -372.723 196.039 -362.275 190.899 -371.54 197.798 -372.723"/></g><g id="edge44" class="edge"><title>evm-&gt;evmjit</title><path fill="none" stroke="#000" stroke-dasharray="1 5" d="M173.003,-400.155C164.621,-391.264 153.756,-379.742 144.127,-369.529"/><polygon fill="#000" stroke="#000" points="146.473 -366.915 137.066 -362.04 141.38 -371.717 146.473 -366.915"/></g><g id="edge45" class="edge"><title>testutils-&gt;ethashseal</title><path fill="none" stroke="#000" d="M128.227,-615.811C139.705,-606.245 154.717,-593.736 167.5,-583.084"/><polygon fill="#000" stroke="#000" points="170.077 -585.492 175.519 -576.401 165.596 -580.114 170.077 -585.492"/></g><g id="edge46" class="edge"><title>devcore-&gt;base</title><path fill="none" stroke="#000" d="M211.898,-188.691C217.53,-186.468 223.46,-184.144 229,-182 265.642,-167.822 307.829,-151.907 336.234,-141.25"/><polygon fill="#000" stroke="#000" points="337.54 -144.499 345.675 -137.711 335.083 -137.944 337.54 -144.499"/></g><g id="node24" class="node"><title>bench</title><polygon fill="none" stroke="#000" stroke-width="2" points="376 -362 322 -362 322 -326 376 -326 376 -362"/><text x="349" y="-341" font-family="Courier,monospace" font-size="10" text-anchor="middle">bench</text></g><g id="edge47" class="edge"><title>bench-&gt;devcrypto</title><path fill="none" stroke="#000" d="M342.82,-325.697C340.005,-317.813 336.609,-308.304 333.481,-299.546"/><polygon fill="#000" stroke="#000" points="336.768 -298.345 330.109 -290.104 330.176 -300.699 336.768 -298.345"/></g><g id="node25" class="node"><title>rlp</title><polygon fill="none" stroke="#000" stroke-width="2" points="304 -362 250 -362 250 -326 304 -326 304 -362"/><text x="277" y="-341" font-family="Courier,monospace" font-size="10" text-anchor="middle">rlp</text></g><g id="edge48" class="edge"><title>rlp-&gt;devcrypto</title><path fill="none" stroke="#000" d="M288.618,-325.697C294.221,-317.351 301.047,-307.185 307.204,-298.016"/><polygon fill="#000" stroke="#000" points="310.171 -299.876 312.839 -289.622 304.359 -295.973 310.171 -299.876"/></g><g id="node26" class="node"><title>testweb3core</title><polygon fill="none" stroke="#000" stroke-width="2" points="396.009 -506 307.991 -506 307.991 -470 396.009 -470 396.009 -506"/><text x="352" y="-485" font-family="Courier,monospace" font-size="10" text-anchor="middle">testweb3core</text></g><g id="edge49" class="edge"><title>testweb3core-&gt;p2p</title><path fill="none" stroke="#000" d="M352,-469.697C352,-461.983 352,-452.712 352,-444.112"/><polygon fill="#000" stroke="#000" points="355.5 -444.104 352 -434.104 348.5 -444.104 355.5 -444.104"/></g><g id="node27" class="node"><title>eth</title><polygon fill="none" stroke="#000" stroke-width="2" points="386 -794 332 -794 332 -758 386 -758 386 -794"/><text x="359" y="-773" font-family="Courier,monospace" font-size="10" text-anchor="middle">eth</text></g><g id="edge56" class="edge"><title>eth-&gt;web3jsonrpc</title><path fill="none" stroke="#000" d="M356.528,-757.697C355.426,-749.983 354.102,-740.712 352.873,-732.112"/><polygon fill="#000" stroke="#000" points="356.323 -731.509 351.443 -722.104 349.393 -732.499 356.323 -731.509"/></g><g id="edge57" class="edge"><title>whisper-&gt;p2p</title><path fill="none" stroke="#000" d="M287.661,-541.681C286.946,-523.04 287.94,-492.976 299,-470 305.235,-457.048 315.958,-445.405 326.135,-436.353"/><polygon fill="#000" stroke="#000" points="328.679 -438.786 334.083 -429.673 324.175 -433.427 328.679 -438.786"/></g><g id="node29" class="node"><title>testweb3</title><polygon fill="none" stroke="#000" stroke-width="2" points="314.006 -794 249.994 -794 249.994 -758 314.006 -758 314.006 -794"/><text x="282" y="-773" font-family="Courier,monospace" font-size="10" text-anchor="middle">testweb3</text></g><g id="edge58" class="edge"><title>testweb3-&gt;web3jsonrpc</title><path fill="none" stroke="#000" d="M298.562,-757.697C307.001,-748.879 317.387,-738.029 326.536,-728.47"/><polygon fill="#000" stroke="#000" points="329.161 -730.789 333.547 -721.145 324.104 -725.949 329.161 -730.789"/></g><g id="node30" class="node"><title>lllc</title><polygon fill="none" stroke="#000" stroke-width="2" points="960 -794 906 -794 906 -758 960 -758 960 -794"/><text x="933" y="-773" font-family="Courier,monospace" font-size="10" text-anchor="middle">lllc</text></g><g id="node31" class="node"><title>lll</title><ellipse cx="917" cy="-704" fill="none" stroke="#000" rx="27" ry="18"/><text x="917" y="-701" font-family="Courier,monospace" font-size="10" text-anchor="middle">lll</text></g><g id="edge1" class="edge"><title>lllc-&gt;lll</title><path fill="none" stroke="#000" d="M929.045,-757.697C927.282,-749.983 925.163,-740.712 923.197,-732.112"/><polygon fill="#000" stroke="#000" points="926.55 -731.073 920.91 -722.104 919.726 -732.633 926.55 -731.073"/></g><g id="node32" class="node"><title>evmasm</title><ellipse cx="858" cy="-632" fill="none" stroke="#000" rx="30.038" ry="18"/><text x="858" y="-629" font-family="Courier,monospace" font-size="10" text-anchor="middle">evmasm</text></g><g id="edge2" class="edge"><title>lll-&gt;evmasm</title><path fill="none" stroke="#000" d="M904.198,-687.811C896.496,-678.673 886.53,-666.849 877.827,-656.524"/><polygon fill="#000" stroke="#000" points="880.307 -654.035 871.186 -648.644 874.954 -658.546 880.307 -654.035"/></g><g id="node33" class="node"><title>evmcore_solidity</title><ellipse cx="858" cy="-560" fill="none" stroke="#000" rx="64.508" ry="18"/><text x="858" y="-557" font-family="Courier,monospace" font-size="10" text-anchor="middle">evmcore_solidity</text></g><g id="edge3" class="edge"><title>evmasm-&gt;evmcore_solidity</title><path fill="none" stroke="#000" d="M858,-613.697C858,-605.983 858,-596.712 858,-588.112"/><polygon fill="#000" stroke="#000" points="861.5 -588.104 858 -578.104 854.5 -588.104 861.5 -588.104"/></g><g id="node34" class="node"><title>solidity</title><ellipse cx="819" cy="-704" fill="none" stroke="#000" rx="36.433" ry="18"/><text x="819" y="-701" font-family="Courier,monospace" font-size="10" text-anchor="middle">solidity</text></g><g id="edge4" class="edge"><title>solidity-&gt;evmasm</title><path fill="none" stroke="#000" d="M828.242,-686.411C832.905,-678.042 838.662,-667.71 843.865,-658.37"/><polygon fill="#000" stroke="#000" points="847.014 -659.909 848.824 -649.47 840.899 -656.502 847.014 -659.909"/></g><g id="node35" class="node"><title>soljson</title><ellipse cx="855" cy="-776" fill="none" stroke="#000" rx="33.236" ry="18"/><text x="855" y="-773" font-family="Courier,monospace" font-size="10" text-anchor="middle">soljson</text></g><g id="edge5" class="edge"><title>soljson-&gt;solidity</title><path fill="none" stroke="#000" d="M846.469,-758.411C842.271,-750.249 837.113,-740.22 832.405,-731.065"/><polygon fill="#000" stroke="#000" points="835.406 -729.248 827.72 -721.956 829.181 -732.45 835.406 -729.248"/></g><g id="node36" class="node"><title>solc</title><polygon fill="none" stroke="#000" stroke-width="2" points="804 -794 750 -794 750 -758 804 -758 804 -794"/><text x="777" y="-773" font-family="Courier,monospace" font-size="10" text-anchor="middle">solc</text></g><g id="edge53" class="edge"><title>solc-&gt;solidity</title><path fill="none" stroke="#000" d="M787.382,-757.697C792.338,-749.437 798.364,-739.394 803.82,-730.299"/><polygon fill="#000" stroke="#000" points="806.883 -731.998 809.027 -721.622 800.88 -728.396 806.883 -731.998"/></g><g id="node37" class="node"><title>soltest</title><polygon fill="none" stroke="#000" stroke-width="2" points="1036.01 -794 977.995 -794 977.995 -758 1036.01 -758 1036.01 -794"/><text x="1007" y="-773" font-family="Courier,monospace" font-size="10" text-anchor="middle">soltest</text></g><g id="edge55" class="edge"><title>soltest-&gt;ethereum</title><path fill="none" stroke="#000" d="M1007.63,-757.97C1008.27,-712.743 1003.03,-589.305 931,-534 875.247,-491.193 368.521,-516.378 299,-506 290.505,-504.732 281.52,-502.816 273.007,-500.722"/><polygon fill="#000" stroke="#000" points="273.845 -497.323 263.288 -498.209 272.093 -504.1 273.845 -497.323"/></g><g id="edge54" class="edge"><title>soltest-&gt;solidity</title><path fill="none" stroke="#000" d="M983.08,-757.771C978.536,-754.934 973.723,-752.204 969,-750 958.929,-745.299 900.525,-728.244 859.641,-716.535"/><polygon fill="#000" stroke="#000" points="860.5 -713.14 849.923 -713.758 858.576 -719.871 860.5 -713.14"/></g><g id="node38" class="node"><title>AlethZero</title><polygon fill="none" stroke="#000" stroke-width="2" points="572.007 -868 501.993 -868 501.993 -832 572.007 -832 572.007 -868"/><text x="537" y="-847" font-family="Courier,monospace" font-size="10" text-anchor="middle">AlethZero</text></g><g id="edge14" class="edge"><title>AlethZero-&gt;solidity</title><path fill="none" stroke="#000" stroke-dasharray="1 5" d="M572.367,-847.781C616.083,-845.612 687.252,-839.715 708,-824 736.706,-802.257 716.892,-776.75 741,-750 752.247,-737.52 767.796,-727.588 782.053,-720.265"/><polygon fill="#000" stroke="#000" points="783.715 -723.348 791.178 -715.828 780.654 -717.053 783.715 -723.348"/></g><g id="node39" class="node"><title>aleth</title><ellipse cx="494" cy="-776" fill="none" stroke="#000" rx="27" ry="18"/><text x="494" y="-773" font-family="Courier,monospace" font-size="10" text-anchor="middle">aleth</text></g><g id="edge15" class="edge"><title>AlethZero-&gt;aleth</title><path fill="none" stroke="#000" d="M526.81,-831.937C521.409,-822.895 514.679,-811.625 508.721,-801.65"/><polygon fill="#000" stroke="#000" points="511.66 -799.745 503.528 -792.954 505.651 -803.334 511.66 -799.745"/></g><g id="edge17" class="edge"><title>aleth-&gt;web3jsonrpc</title><path fill="none" stroke="#000" d="M472.605,-764.671C449.984,-753.751 413.859,-736.311 386.491,-723.099"/><polygon fill="#000" stroke="#000" points="387.74 -719.816 377.213 -718.62 384.697 -726.119 387.74 -719.816"/></g><g id="node47" class="node"><title>Qt*</title><ellipse cx="558" cy="-704" fill="none" stroke="#000" rx="27" ry="18"/><text x="558" y="-701" font-family="Courier,monospace" font-size="10" text-anchor="middle">Qt*</text></g><g id="edge16" class="edge"><title>aleth-&gt;Qt*</title><path fill="none" stroke="#000" d="M507.573,-760.155C516.312,-750.596 527.834,-737.994 537.658,-727.249"/><polygon fill="#000" stroke="#000" points="540.282 -729.566 544.447 -719.824 535.116 -724.842 540.282 -729.566"/></g><g id="node40" class="node"><title>AlethOne</title><polygon fill="none" stroke="#000" stroke-width="2" points="484.006 -868 419.994 -868 419.994 -832 484.006 -832 484.006 -868"/><text x="452" y="-847" font-family="Courier,monospace" font-size="10" text-anchor="middle">AlethOne</text></g><g id="edge18" class="edge"><title>AlethOne-&gt;aleth</title><path fill="none" stroke="#000" d="M461.953,-831.937C467.228,-822.895 473.802,-811.625 479.621,-801.65"/><polygon fill="#000" stroke="#000" points="482.678 -803.355 484.693 -792.954 476.632 -799.828 482.678 -803.355"/></g><g id="node41" class="node"><title>Mix</title><ellipse cx="623" cy="-776" fill="none" stroke="#000" rx="27" ry="18"/><text x="623" y="-773" font-family="Courier,monospace" font-size="10" text-anchor="middle">Mix</text></g><g id="edge52" class="edge"><title>Mix-&gt;web3jsonrpc</title><path fill="none" stroke="#000" d="M605.912,-762.044C599.358,-757.626 591.619,-753.04 584,-750 525.467,-726.647 453.779,-715.169 405.084,-709.693"/><polygon fill="#000" stroke="#000" points="405.372 -706.204 395.055 -708.613 404.623 -713.163 405.372 -706.204"/></g><g id="edge50" class="edge"><title>Mix-&gt;solidity</title><path fill="none" stroke="#000" stroke-dasharray="1 5" d="M646.253,-766.695C679.439,-754.843 740.779,-732.936 780.723,-718.67"/><polygon fill="#000" stroke="#000" points="782.147 -721.879 790.387 -715.219 779.792 -715.286 782.147 -721.879"/></g><g id="edge51" class="edge"><title>Mix-&gt;Qt*</title><path fill="none" stroke="#000" d="M609.215,-760.155C600.339,-750.596 588.637,-737.994 578.66,-727.249"/><polygon fill="#000" stroke="#000" points="581.134 -724.77 571.765 -719.824 576.005 -729.533 581.134 -724.77"/></g></g></svg>